<svg xmlns="http://www.w3.org/2000/svg" xmlns:xlink="http://www.w3.org/1999/xlink" version="1.1" x="0px" y="0px" viewBox="0 0 100 125" style="enable-background:new 0 0 100 100;" xml:space="preserve"><path d="M93.6,98.7H6.7c-2.2,0-4.1-1.8-4.1-4.1s1.8-4.1,4.1-4.1h86.9c2.2,0,4.1,1.8,4.1,4.1S95.9,98.7,93.6,98.7z"/><path d="M52.7,76.3h-46c-2.2,0-4.1-1.8-4.1-4.1s1.8-4.1,4.1-4.1h46c2.2,0,4.1,1.8,4.1,4.1S55,76.3,52.7,76.3z"/><path d="M63.3,31.4H6.7c-2.2,0-4.1-1.8-4.1-4.1s1.8-4.1,4.1-4.1h56.6c2.2,0,4.1,1.8,4.1,4.1S65.5,31.4,63.3,31.4z"/><path d="M93.6,53.8H6.7c-2.2,0-4.1-1.8-4.1-4.1s1.8-4.1,4.1-4.1h86.9c2.2,0,4.1,1.8,4.1,4.1S95.9,53.8,93.6,53.8z"/><path d="M93.6,8.9H6.7c-2.2,0-4.1-1.8-4.1-4.1s1.8-4.1,4.1-4.1h86.9c2.2,0,4.1,1.8,4.1,4.1S95.9,8.9,93.6,8.9z"/></svg>
